<svg xmlns="http://www.w3.org/2000/svg" xmlns:xlink="http://www.w3.org/1999/xlink" width="549.5" height="91" class="railroad-diagram" viewBox="0 0 549.5 91"><g><g fill="none" stroke="#000" stroke-width="2"><path stroke-dasharray="5 5" d="M10 40 l30 0" transform="translate(.5 .5)"/></g><path d="M40 40h10" transform="translate(.5 .5)"/><g><path d="M50 40h0" transform="translate(.5 .5)"/><path d="M499.5 40h0" transform="translate(.5 .5)"/><g transform="translate(.5 .5)"><path d="M50 40h0"/><path d="M421 40h0"/><g><path d="M50 40h0"/><path d="M161 40h0"/><path d="M50 40a10 10 0 0 0 10 -10v0a10 10 0 0 1 10 -10"/><g><path d="M70 20h71"/></g><path d="M141 20a10 10 0 0 1 10 10v0a10 10 0 0 0 10 10"/><path d="M50 40h20"/><g class="terminal"><path d="M70 40h0"/><path d="M141 40h0"/><rect width="71" height="22" x="70" y="29" rx="10" ry="10"/><text x="105.5" y="44">COLUMN</text></g><path d="M141 40h20"/></g><g><path d="M161 40h0"/><path d="M297.5 40h0"/><path d="M161 40h20"/><g><path d="M181 40h96.5"/></g><path d="M277.5 40h20"/><path d="M161 40a10 10 0 0 1 10 10v0a10 10 0 0 0 10 10"/><g class="terminal"><path d="M181 60h0"/><path d="M277.5 60h0"/><rect width="96.5" height="22" x="181" y="49" rx="10" ry="10"/><text x="229.25" y="64">IF EXISTS</text></g><path d="M277.5 60a10 10 0 0 0 10 -10v0a10 10 0 0 1 10 -10"/></g><path d="M297.5 40h10"/><a xlink:href="https://ignite.apache.org/docs/3.0.0-alpha/sql-reference/ddl#column_list"><g class="non-terminal"><path d="M307.5 40h0"/><path d="M421 40h0"/><rect width="113.5" height="22" x="307.5" y="29"/><text x="364.25" y="44" fill="#00f">column_list</text></g></a></g><path d="M421 40h10" transform="translate(.5 .5)"/><g><path d="M431 40h0" transform="translate(.5 .5)"/><path d="M499.5 40h0" transform="translate(.5 .5)"/><path d="M431 40a10 10 0 0 0 10 -10v0a10 10 0 0 1 10 -10" transform="translate(.5 .5)"/><g><path d="M451 20h28.5" transform="translate(.5 .5)"/></g><path d="M479.5 20a10 10 0 0 1 10 10v0a10 10 0 0 0 10 10" transform="translate(.5 .5)"/><path d="M431 40h20" transform="translate(.5 .5)"/><g class="terminal" transform="translate(.5 .5)"><path d="M451 40h0"/><path d="M479.5 40h0"/><rect width="28.5" height="22" x="451" y="29" rx="10" ry="10"/><text x="465.25" y="44">;</text></g><path d="M479.5 40h20" transform="translate(.5 .5)"/></g></g><path d="M499.5 40h10" transform="translate(.5 .5)"/><path d="M 509.5 40 h 20 m -10 -10 v 20 m 10 -20 v 20" transform="translate(.5 .5)"/></g><style>svg{background-color:#fff}path,rect{stroke-width:2;stroke:#000;fill:transparent}rect{fill:#fff}text{font:700 14px monospace;text-anchor:middle;white-space:pre}</style></svg>