<svg xmlns="http://www.w3.org/2000/svg" xmlns:xlink="http://www.w3.org/1999/xlink" width="625.5" height="82" class="railroad-diagram" viewBox="0 0 625.5 82"><g><g><path d="M20 21v20m10 -20v20m-10 -10h20" transform="translate(.5 .5)"/></g><path d="M40 31h10" transform="translate(.5 .5)"/><g transform="translate(.5 .5)"><path d="M50 31h0"/><path d="M575.5 31h0"/><g class="terminal"><path d="M50 31h0"/><path d="M163.5 31h0"/><rect width="113.5" height="22" x="50" y="20" rx="10" ry="10"/><text x="106.75" y="35">ALTER TABLE</text></g><path d="M163.5 31h10"/><g><path d="M173.5 31h0"/><path d="M310 31h0"/><path d="M173.5 31h20"/><g><path d="M193.5 31h96.5"/></g><path d="M290 31h20"/><path d="M173.5 31a10 10 0 0 1 10 10v0a10 10 0 0 0 10 10"/><g class="terminal"><path d="M193.5 51h0"/><path d="M290 51h0"/><rect width="96.5" height="22" x="193.5" y="40" rx="10" ry="10"/><text x="241.75" y="55">IF EXISTS</text></g><path d="M290 51a10 10 0 0 0 10 -10v0a10 10 0 0 1 10 -10"/></g><path d="M310 31h10"/><a xlink:href="https://ignite.apache.org/docs/3.0.0-alpha/sql-reference/ddl#qualified_table_name"><g class="non-terminal"><path d="M320 40h0"/><path d="M510 40h0"/><rect width="190" height="22" x="320" y="29"/><text x="415" y="44" fill="#00f">qualified_table_name</text></g></a><path d="M510 31h10"/><path d="M520 31h10"/><g><path d="M530 31h0"/><path d="M575.5 31h0"/><g class="terminal"><path d="M530 31h0"/><path d="M575.5 31h0"/><rect width="45.5" height="22" x="530" y="20" rx="10" ry="10"/><text x="552.75" y="35">ADD</text></g></g></g><g fill="none" stroke="#000" stroke-width="2"><path stroke-dasharray="5 5" d="M581 32 l30 0" transform="translate(.5 .5)"/></g></g><style>svg{background-color:#fff}path,rect{stroke-width:2;stroke:#000;fill:transparent}rect{fill:#fff}text{font:700 14px monospace;text-anchor:middle;white-space:pre}</style></svg>