<svg xmlns="http://www.w3.org/2000/svg" xmlns:xlink="http://www.w3.org/1999/xlink" width="410.5" height="133" class="railroad-diagram" viewBox="0 0 410.5 133"><g><g><path d="M20 54v20m0 -10h20" transform="translate(.5 .5)"/></g><path d="M40 64h10" transform="translate(.5 .5)"/><g transform="translate(.5 .5)"><path d="M50 64h0"/><path d="M360.5 64h0"/><rect width="310.5" height="77" x="50" y="36" class="group-box" rx="10" ry="10"/><g><path d="M50 64h10"/><path d="M350.5 64h10"/><g><path d="M60 64h0"/><path d="M128.5 64h0"/><path d="M60 64a10 10 0 0 0 10 -10v0a10 10 0 0 1 10 -10"/><g><path d="M80 44h28.5"/></g><path d="M108.5 44a10 10 0 0 1 10 10v0a10 10 0 0 0 10 10"/><path d="M60 64h20"/><g class="terminal"><path d="M80 64h0"/><path d="M108.5 64h0"/><rect width="28.5" height="22" x="80" y="53" rx="10" ry="10"/><text x="94.25" y="68">(</text></g><path d="M108.5 64h20"/></g><path d="M128.5 64h10"/><g><path d="M138.5 64h0"/><path d="M272 64h0"/><path d="M138.5 64h10"/><g class="non-terminal"><path d="M148.5 64h0"/><path d="M262 64h0"/><rect width="113.5" height="22" x="148.5" y="53"/><text x="205.25" y="68">column_name</text></g><path d="M262 64h10"/><path d="M148.5 64a10 10 0 0 0 -10 10v10a10 10 0 0 0 10 10"/><g class="terminal"><path d="M148.5 94h42.5"/><path d="M219.5 94h42.5"/><rect width="28.5" height="22" x="191" y="83" rx="10" ry="10"/><text x="205.25" y="98">,</text></g><path d="M262 94a10 10 0 0 0 10 -10v-10a10 10 0 0 0 -10 -10"/></g><path d="M272 64h10"/><g><path d="M282 64h0"/><path d="M350.5 64h0"/><path d="M282 64a10 10 0 0 0 10 -10v0a10 10 0 0 1 10 -10"/><g><path d="M302 44h28.5"/></g><path d="M330.5 44a10 10 0 0 1 10 10v0a10 10 0 0 0 10 10"/><path d="M282 64h20"/><g class="terminal"><path d="M302 64h0"/><path d="M330.5 64h0"/><rect width="28.5" height="22" x="302" y="53" rx="10" ry="10"/><text x="316.25" y="68">)</text></g><path d="M330.5 64h20"/></g></g><g class="comment"><path d="M50 28h0"/><path d="M137 28h0"/><text x="93.5" y="25" class="comment">column_list</text></g></g><path d="M360.5 64h10" transform="translate(.5 .5)"/><path d="M 370.5 64 h 20 m 0 -10 v 20" transform="translate(.5 .5)"/></g><style>svg{background-color:#fff}path,rect{stroke-width:2;stroke:#000;fill:transparent}rect{fill:#fff}text{font:700 14px monospace;text-anchor:middle;white-space:pre}text.comment{font:italic 12px monospace}rect.group-box{stroke:gray;stroke-dasharray:10 5;fill:none}</style></svg>