<svg xmlns="http://www.w3.org/2000/svg" xmlns:xlink="http://www.w3.org/1999/xlink" width="912" height="111" class="railroad-diagram" viewBox="0 0 912 111"><g><g><path d="M20 62v20m0 -10h20" transform="translate(.5 .5)"/></g><path d="M40 72h10" transform="translate(.5 .5)"/><g transform="translate(.5 .5)"><path d="M50 72h0"/><path d="M862 72h0"/><rect width="812" height="55" x="50" y="36" class="group-box" rx="10" ry="10"/><g><path d="M50 72h10"/><path d="M852 72h10"/><g class="non-terminal"><path d="M60 72h0"/><path d="M168 72h0"/><rect width="108" height="22" x="60" y="61"/><text x="114" y="76">column_name</text></g><path d="M168 72h10"/><path d="M178 72h10"/><g class="terminal"><path d="M188 72h0"/><path d="M280 72h0"/><rect width="92" height="22" x="188" y="61" rx="10" ry="10"/><text x="234" y="76">DATA TYPE</text></g><path d="M280 72h10"/><g><path d="M290 72h0"/><path d="M476 72h0"/><path d="M290 72a10 10 0 0 0 10 -10v-8a10 10 0 0 1 10 -10"/><g><path d="M310 44h146"/></g><path d="M456 44a10 10 0 0 1 10 10v8a10 10 0 0 0 10 10"/><path d="M290 72h20"/><g><path d="M310 72h0"/><path d="M456 72h0"/><g><path d="M310 72h0"/><path d="M394 72h0"/><path d="M310 72a10 10 0 0 0 10 -10v0a10 10 0 0 1 10 -10"/><g><path d="M330 52h44"/></g><path d="M374 52a10 10 0 0 1 10 10v0a10 10 0 0 0 10 10"/><path d="M310 72h20"/><g class="terminal"><path d="M330 72h0"/><path d="M374 72h0"/><rect width="44" height="22" x="330" y="61" rx="10" ry="10"/><text x="352" y="76">NOT</text></g><path d="M374 72h20"/></g><path d="M394 72h10"/><g class="terminal"><path d="M404 72h0"/><path d="M456 72h0"/><rect width="52" height="22" x="404" y="61" rx="10" ry="10"/><text x="430" y="76">NULL</text></g></g><path d="M456 72h20"/></g><g><path d="M476 72h0"/><path d="M736 72h0"/><path d="M476 72a10 10 0 0 0 10 -10v0a10 10 0 0 1 10 -10"/><g><path d="M496 52h220"/></g><path d="M716 52a10 10 0 0 1 10 10v0a10 10 0 0 0 10 10"/><path d="M476 72h20"/><g><path d="M496 72h0"/><path d="M716 72h0"/><g class="terminal"><path d="M496 72h0"/><path d="M572 72h0"/><rect width="76" height="22" x="496" y="61" rx="10" ry="10"/><text x="534" y="76">DEFAULT</text></g><path d="M572 72h10"/><path d="M582 72h10"/><g class="non-terminal"><path d="M592 72h0"/><path d="M716 72h0"/><rect width="124" height="22" x="592" y="61"/><text x="654" y="76">literal_value</text></g></g><path d="M716 72h20"/></g><g><path d="M736 72h0"/><path d="M852 72h0"/><path d="M736 72a10 10 0 0 0 10 -10v0a10 10 0 0 1 10 -10"/><g><path d="M756 52h76"/></g><path d="M832 52a10 10 0 0 1 10 10v0a10 10 0 0 0 10 10"/><path d="M736 72h20"/><g class="terminal"><path d="M756 72h0"/><path d="M832 72h0"/><rect width="76" height="22" x="756" y="61" rx="10" ry="10"/><text x="794" y="76">PRIMARY</text></g><path d="M832 72h20"/></g></g><g class="comment"><path d="M50 28h0"/><path d="M179 28h0"/><text x="114.5" y="25" class="comment">column_definition</text></g></g><path d="M862 72h10" transform="translate(.5 .5)"/><path d="M 872 72 h 20 m 0 -10 v 20" transform="translate(.5 .5)"/></g><style>svg{background-color:#fff}path,rect{stroke-width:2;stroke:#000;fill:transparent}rect{fill:#fff}text{font:700 14px monospace;text-anchor:middle;white-space:pre}text.comment{font:italic 12px monospace}rect.group-box{stroke:gray;stroke-dasharray:10 5;fill:none}</style></svg>