<svg xmlns="http://www.w3.org/2000/svg" xmlns:xlink="http://www.w3.org/1999/xlink" width="1072" height="109" class="railroad-diagram" viewBox="0 0 1072 109"><g><g fill="none" stroke="#000" stroke-width="2"><path stroke-dasharray="5 5" d="M10 48 l30 0" transform="translate(.5 .5)"/></g><path d="M40 48h10" transform="translate(.5 .5)"/><g><path d="M50 48h0" transform="translate(.5 .5)"/><path d="M1022 48h0" transform="translate(.5 .5)"/><g><path d="M50 48h0" transform="translate(.5 .5)"/><path d="M378 48h0" transform="translate(.5 .5)"/><path d="M50 48a10 10 0 0 0 10 -10v-8a10 10 0 0 1 10 -10" transform="translate(.5 .5)"/><g><path d="M70 20h288" transform="translate(.5 .5)"/></g><path d="M358 20a10 10 0 0 1 10 10v8a10 10 0 0 0 10 10" transform="translate(.5 .5)"/><path d="M50 48h20" transform="translate(.5 .5)"/><g transform="translate(.5 .5)"><path d="M70 48h0"/><path d="M358 48h0"/><g class="terminal"><path d="M70 48h0"/><path d="M154 48h0"/><rect width="84" height="22" x="70" y="37" rx="10" ry="10"/><text x="112" y="52">COLOCATE</text></g><path d="M154 48h10"/><g><path d="M164 48h0"/><path d="M240 48h0"/><path d="M164 48a10 10 0 0 0 10 -10v0a10 10 0 0 1 10 -10"/><g><path d="M184 28h36"/></g><path d="M220 28a10 10 0 0 1 10 10v0a10 10 0 0 0 10 10"/><path d="M164 48h20"/><g class="terminal"><path d="M184 48h0"/><path d="M220 48h0"/><rect width="36" height="22" x="184" y="37" rx="10" ry="10"/><text x="202" y="52">BY</text></g><path d="M220 48h20"/></g><path d="M240 48h10"/><a xlink:href="https://ignite.apache.org/docs/3.0.0-alpha/sql-reference/ddl#column_list"><g class="non-terminal"><path d="M250 48h0"/><path d="M358 48h0"/><rect width="108" height="22" x="250" y="37"/><text x="304" y="52" fill="#00f">column_list</text></g></a></g><path d="M358 48h20" transform="translate(.5 .5)"/></g><g><path d="M378 48h0" transform="translate(.5 .5)"/><path d="M614 48h0" transform="translate(.5 .5)"/><path d="M378 48a10 10 0 0 0 10 -10v0a10 10 0 0 1 10 -10" transform="translate(.5 .5)"/><g><path d="M398 28h196" transform="translate(.5 .5)"/></g><path d="M594 28a10 10 0 0 1 10 10v0a10 10 0 0 0 10 10" transform="translate(.5 .5)"/><path d="M378 48h20" transform="translate(.5 .5)"/><g><path d="M398 48h0" transform="translate(.5 .5)"/><path d="M594 48h0" transform="translate(.5 .5)"/><g class="terminal" transform="translate(.5 .5)"><path d="M398 48h0"/><path d="M466 48h0"/><rect width="68" height="22" x="398" y="37" rx="10" ry="10"/><text x="432" y="52">ENGINE</text></g><path d="M466 48h10" transform="translate(.5 .5)"/><path d="M476 48h10" transform="translate(.5 .5)"/><g class="non-terminal" transform="translate(.5 .5)"><path d="M486 48h0"/><path d="M594 48h0"/><rect width="108" height="22" x="486" y="37"/><text x="540" y="52">engine_name</text></g></g><path d="M594 48h20" transform="translate(.5 .5)"/></g><g><path d="M614 48h0" transform="translate(.5 .5)"/><path d="M1022 48h0" transform="translate(.5 .5)"/><path d="M614 48a10 10 0 0 0 10 -10v0a10 10 0 0 1 10 -10" transform="translate(.5 .5)"/><g><path d="M634 28h368" transform="translate(.5 .5)"/></g><path d="M1002 28a10 10 0 0 1 10 10v0a10 10 0 0 0 10 10" transform="translate(.5 .5)"/><path d="M614 48h20" transform="translate(.5 .5)"/><g><path d="M634 48h0" transform="translate(.5 .5)"/><path d="M1002 48h0" transform="translate(.5 .5)"/><g class="terminal" transform="translate(.5 .5)"><path d="M634 48h0"/><path d="M686 48h0"/><rect width="52" height="22" x="634" y="37" rx="10" ry="10"/><text x="660" y="52">WITH</text></g><path d="M686 48h10" transform="translate(.5 .5)"/><path d="M696 48h10" transform="translate(.5 .5)"/><g><path d="M706 48h0" transform="translate(.5 .5)"/><path d="M1002 48h0" transform="translate(.5 .5)"/><path d="M706 48h10" transform="translate(.5 .5)"/><g><path d="M716 48h0" transform="translate(.5 .5)"/><path d="M992 48h0" transform="translate(.5 .5)"/><g class="non-terminal" transform="translate(.5 .5)"><path d="M716 48h0"/><path d="M816 48h0"/><rect width="100" height="22" x="716" y="37"/><text x="766" y="52">param_name</text></g><path d="M816 48h10" transform="translate(.5 .5)"/><path d="M826 48h10" transform="translate(.5 .5)"/><g class="terminal" transform="translate(.5 .5)"><path d="M836 48h0"/><path d="M864 48h0"/><rect width="28" height="22" x="836" y="37" rx="10" ry="10"/><text x="850" y="52">=</text></g><path d="M864 48h10" transform="translate(.5 .5)"/><path d="M874 48h10" transform="translate(.5 .5)"/><g class="non-terminal" transform="translate(.5 .5)"><path d="M884 48h0"/><path d="M992 48h0"/><rect width="108" height="22" x="884" y="37"/><text x="938" y="52">param_value</text></g></g><path d="M992 48h10" transform="translate(.5 .5)"/><path d="M716 48a10 10 0 0 0 -10 10v10a10 10 0 0 0 10 10" transform="translate(.5 .5)"/><g class="terminal" transform="translate(.5 .5)"><path d="M716 78h124"/><path d="M868 78h124"/><rect width="28" height="22" x="840" y="67" rx="10" ry="10"/><text x="854" y="82">,</text></g><path d="M992 78a10 10 0 0 0 10 -10v-10a10 10 0 0 0 -10 -10" transform="translate(.5 .5)"/></g></g><path d="M1002 48h20" transform="translate(.5 .5)"/></g></g><path d="M1022 48h10" transform="translate(.5 .5)"/><path d="M 1032 48 h 20 m -10 -10 v 20 m 10 -20 v 20" transform="translate(.5 .5)"/></g><style>svg{background-color:#fff}path,rect{stroke-width:2;stroke:#000;fill:transparent}rect{fill:#fff}text{font:700 14px monospace;text-anchor:middle;white-space:pre}</style></svg>