<svg xmlns="http://www.w3.org/2000/svg" xmlns:xlink="http://www.w3.org/1999/xlink" width="872" height="122" class="railroad-diagram" viewBox="0 0 872 122"><g><g><path d="M20 51v20m10 -20v20m-10 -10h20" transform="translate(.5 .5)"/></g><path d="M40 61h10" transform="translate(.5 .5)"/><g transform="translate(.5 .5)"><path d="M50 61h0"/><path d="M822 61h0"/><g class="terminal"><path d="M50 61h0"/><path d="M118 61h0"/><rect width="68" height="22" x="50" y="50" rx="10" ry="10"/><text x="84" y="65">CREATE</text></g><path d="M118 61h10"/><path d="M128 61h10"/><g class="terminal"><path d="M138 61h0"/><path d="M198 61h0"/><rect width="60" height="22" x="138" y="50" rx="10" ry="10"/><text x="168" y="65">TABLE</text></g><path d="M198 61h10"/><g><path d="M208 61h0"/><path d="M372 61h0"/><path d="M208 61a10 10 0 0 0 10 -10v0a10 10 0 0 1 10 -10"/><g><path d="M228 41h124"/></g><path d="M352 41a10 10 0 0 1 10 10v0a10 10 0 0 0 10 10"/><path d="M208 61h20"/><g class="terminal"><path d="M228 61h0"/><path d="M352 61h0"/><rect width="124" height="22" x="228" y="50" rx="10" ry="10"/><text x="290" y="65">IF NOT EXISTS</text></g><path d="M352 61h20"/></g><path d="M372 61h10"/><a xlink:href="https://ignite.apache.org/docs/3.0.0-alpha/sql-reference/ddl#qualified_table_name"><g class="non-terminal"><path d="M382 61h0"/><path d="M482 61h0"/><rect width="100" height="22" x="382" y="50"/><text x="432" y="65" fill="#00f">table_name</text></g></a><path d="M482 61h10"/><path d="M492 61h10"/><g class="terminal"><path d="M502 61h0"/><path d="M530 61h0"/><rect width="28" height="22" x="502" y="50" rx="10" ry="10"/><text x="516" y="65">(</text></g><path d="M530 61h10"/><path d="M540 61h10"/><g><path d="M550 61h0"/><path d="M774 61h0"/><path d="M550 61h10"/><g><path d="M560 61h0"/><path d="M764 61h0"/><path d="M560 61a10 10 0 0 0 10 -10v-10a10 10 0 0 1 10 -10"/><a xlink:href="https://ignite.apache.org/docs/3.0.0-alpha/sql-reference/ddl#constraint"><g class="non-terminal"><path d="M580 31h32"/><path d="M712 31h32"/><rect width="100" height="22" x="612" y="20"/><text x="662" y="35" fill="#00f">constraint</text></g></a><path d="M744 31a10 10 0 0 1 10 10v10a10 10 0 0 0 10 10"/><path d="M560 61h20"/><a xlink:href="https://ignite.apache.org/docs/3.0.0-alpha/sql-reference/ddl#column_definition"><g class="non-terminal"><path d="M580 61h0"/><path d="M744 61h0"/><rect width="164" height="22" x="580" y="50"/><text x="662" y="65" fill="#00f">columns_definition</text></g></a><path d="M744 61h20"/></g><path d="M764 61h10"/><path d="M560 61a10 10 0 0 0 -10 10v10a10 10 0 0 0 10 10"/><g class="terminal"><path d="M560 91h88"/><path d="M676 91h88"/><rect width="28" height="22" x="648" y="80" rx="10" ry="10"/><text x="662" y="95">,</text></g><path d="M764 91a10 10 0 0 0 10 -10v-10a10 10 0 0 0 -10 -10"/></g><path d="M774 61h10"/><path d="M784 61h10"/><g class="terminal"><path d="M794 61h0"/><path d="M822 61h0"/><rect width="28" height="22" x="794" y="50" rx="10" ry="10"/><text x="808" y="65">)</text></g></g><path d="M822 61h10" transform="translate(.5 .5)"/><g fill="none" stroke="#000" stroke-width="2"><path stroke-dasharray="5 5" d="M830 61 l30 0" transform="translate(.5 .5)"/></g></g><style>svg{background-color:#fff}path,rect{stroke-width:2;stroke:#000;fill:transparent}rect{fill:#fff}text{font:700 14px monospace;text-anchor:middle;white-space:pre}</style></svg>