<svg xmlns="http://www.w3.org/2000/svg" xmlns:xlink="http://www.w3.org/1999/xlink" width="630" height="91" class="railroad-diagram" viewBox="0 0 630 91"><g><g><path d="M20 30v20m10 -20v20m-10 -10h20" transform="translate(.5 .5)"/></g><path d="M40 40h10" transform="translate(.5 .5)"/><g transform="translate(.5 .5)"><path d="M50 40h0"/><path d="M580 40h0"/><g class="terminal"><path d="M50 40h0"/><path d="M155 40h0"/><rect width="105" height="22" x="50" y="29" rx="10" ry="10"/><text x="102.5" y="44">DROP TABLE</text></g><path d="M155 40h10"/><g><path d="M165 40h0"/><path d="M301.5 40h0"/><path d="M165 40h20"/><g><path d="M185 40h96.5"/></g><path d="M281.5 40h20"/><path d="M165 40a10 10 0 0 1 10 10v0a10 10 0 0 0 10 10"/><g class="terminal"><path d="M185 60h0"/><path d="M281.5 60h0"/><rect width="96.5" height="22" x="185" y="49" rx="10" ry="10"/><text x="233.25" y="64">IF EXISTS</text></g><path d="M281.5 60a10 10 0 0 0 10 -10v0a10 10 0 0 1 10 -10"/></g><path d="M301.5 40h10"/><a xlink:href="https://ignite.apache.org/docs/3.0.0-alpha/sql-reference/ddl#qualified_table_name"><g class="non-terminal"><path d="M311.5 40h0"/><path d="M501.5 40h0"/><rect width="190" height="22" x="311.5" y="29"/><text x="406.5" y="44" fill="#00f">qualified_table_name</text></g></a><path d="M501.5 40h10"/><g><path d="M511.5 40h0"/><path d="M580 40h0"/><path d="M511.5 40a10 10 0 0 0 10 -10v0a10 10 0 0 1 10 -10"/><g><path d="M531.5 20h28.5"/></g><path d="M560 20a10 10 0 0 1 10 10v0a10 10 0 0 0 10 10"/><path d="M511.5 40h20"/><g class="terminal"><path d="M531.5 40h0"/><path d="M560 40h0"/><rect width="28.5" height="22" x="531.5" y="29" rx="10" ry="10"/><text x="545.75" y="44">;</text></g><path d="M560 40h20"/></g></g><path d="M580 40h10" transform="translate(.5 .5)"/><path d="M 590 40 h 20 m -10 -10 v 20 m 10 -20 v 20" transform="translate(.5 .5)"/></g><style>svg{background-color:#fff}path,rect{stroke-width:2;stroke:#000;fill:transparent}rect{fill:#fff}text{font:700 14px monospace;text-anchor:middle;white-space:pre}</style></svg>