<svg xmlns="http://www.w3.org/2000/svg" xmlns:xlink="http://www.w3.org/1999/xlink" width="782" height="133" class="railroad-diagram" viewBox="0 0 782 133"><g><g><path d="M20 54v20m0 -10h20" transform="translate(.5 .5)"/></g><path d="M40 64h10" transform="translate(.5 .5)"/><g transform="translate(.5 .5)"><path d="M50 64h0"/><path d="M732 64h0"/><rect width="682" height="77" x="50" y="36" class="group-box" rx="10" ry="10"/><g><path d="M50 64h10"/><path d="M722 64h10"/><g><path d="M60 64h0"/><path d="M360 64h0"/><path d="M60 64a10 10 0 0 0 10 -10v0a10 10 0 0 1 10 -10"/><g><path d="M80 44h260"/></g><path d="M340 44a10 10 0 0 1 10 10v0a10 10 0 0 0 10 10"/><path d="M60 64h20"/><g><path d="M80 64h0"/><path d="M340 64h0"/><g class="terminal"><path d="M80 64h0"/><path d="M180 64h0"/><rect width="100" height="22" x="80" y="53" rx="10" ry="10"/><text x="130" y="68">CONSTRAINT</text></g><path d="M180 64h10"/><path d="M190 64h10"/><g class="non-terminal"><path d="M200 64h0"/><path d="M340 64h0"/><rect width="140" height="22" x="200" y="53"/><text x="270" y="68">constraint_name</text></g></g><path d="M340 64h20"/></g><path d="M360 64h10"/><g class="terminal"><path d="M370 64h0"/><path d="M478 64h0"/><rect width="108" height="22" x="370" y="53" rx="10" ry="10"/><text x="424" y="68">PRIMARY KEY</text></g><path d="M478 64h10"/><path d="M488 64h10"/><g class="terminal"><path d="M498 64h0"/><path d="M526 64h0"/><rect width="28" height="22" x="498" y="53" rx="10" ry="10"/><text x="512" y="68">(</text></g><path d="M526 64h10"/><path d="M536 64h10"/><g><path d="M546 64h0"/><path d="M674 64h0"/><path d="M546 64h10"/><g class="non-terminal"><path d="M556 64h0"/><path d="M664 64h0"/><rect width="108" height="22" x="556" y="53"/><text x="610" y="68">column_name</text></g><path d="M664 64h10"/><path d="M556 64a10 10 0 0 0 -10 10v10a10 10 0 0 0 10 10"/><g class="terminal"><path d="M556 94h40"/><path d="M624 94h40"/><rect width="28" height="22" x="596" y="83" rx="10" ry="10"/><text x="610" y="98">,</text></g><path d="M664 94a10 10 0 0 0 10 -10v-10a10 10 0 0 0 -10 -10"/></g><path d="M674 64h10"/><path d="M684 64h10"/><g class="terminal"><path d="M694 64h0"/><path d="M722 64h0"/><rect width="28" height="22" x="694" y="53" rx="10" ry="10"/><text x="708" y="68">)</text></g></g><g class="comment"><path d="M50 28h0"/><path d="M130 28h0"/><text x="90" y="25" class="comment">constraint</text></g></g><path d="M732 64h10" transform="translate(.5 .5)"/><path d="M 742 64 h 20 m 0 -10 v 20" transform="translate(.5 .5)"/></g><style>svg{background-color:#fff}path,rect{stroke-width:2;stroke:#000;fill:transparent}rect{fill:#fff}text{font:700 14px monospace;text-anchor:middle;white-space:pre}text.comment{font:italic 12px monospace}rect.group-box{stroke:gray;stroke-dasharray:10 5;fill:none}</style></svg>