<svg xmlns="http://www.w3.org/2000/svg" xmlns:xlink="http://www.w3.org/1999/xlink" width="394.5" height="114" class="railroad-diagram" viewBox="0 0 394.5 114"><g><g><path d="M20 45v20m0 -10h20" transform="translate(.5 .5)"/></g><path d="M40 55h10" transform="translate(.5 .5)"/><g transform="translate(.5 .5)"><path d="M50 55h0"/><path d="M344.5 55h0"/><rect width="294.5" height="58" x="50" y="36" class="group-box" rx="10" ry="10"/><g><path d="M50 55h10"/><path d="M334.5 55h10"/><g><path d="M60 55h0"/><path d="M219.5 55h0"/><path d="M60 55h20"/><g><path d="M80 55h119.5"/></g><path d="M199.5 55h20"/><path d="M60 55a10 10 0 0 1 10 10v0a10 10 0 0 0 10 10"/><g><path d="M80 75h0"/><path d="M199.5 75h0"/><g class="non-terminal"><path d="M80 75h0"/><path d="M151 75h0"/><rect width="71" height="22" x="80" y="64"/><text x="115.5" y="79">schema</text></g><path d="M151 75h10"/><path d="M161 75h10"/><g class="terminal"><path d="M171 75h0"/><path d="M199.5 75h0"/><rect width="28.5" height="22" x="171" y="64" rx="10" ry="10"/><text x="185.25" y="79">.</text></g></g><path d="M199.5 75a10 10 0 0 0 10 -10v0a10 10 0 0 1 10 -10"/></g><path d="M219.5 55h10"/><g class="non-terminal"><path d="M229.5 55h0"/><path d="M334.5 55h0"/><rect width="105" height="22" x="229.5" y="44"/><text x="282" y="59">table_name</text></g></g><g class="comment"><path d="M50 28h0"/><path d="M200 28h0"/><text x="125" y="25" class="comment">qualified_table_name</text></g></g><path d="M344.5 55h10" transform="translate(.5 .5)"/><path d="M 354.5 55 h 20 m 0 -10 v 20" transform="translate(.5 .5)"/></g><style>svg{background-color:#fff}path,rect{stroke-width:2;stroke:#000;fill:transparent}rect{fill:#fff}text{font:700 14px monospace;text-anchor:middle;white-space:pre}text.comment{font:italic 12px monospace}rect.group-box{stroke:gray;stroke-dasharray:10 5;fill:none}</style></svg>